<svg id="Text" xmlns="http://www.w3.org/2000/svg" viewBox="0 0 1692.57 219.6"><defs><style>.cls-1{fill:#fca311;}</style></defs><path class="cls-1" d="M306.78,439.63h102.6c39.6,0,71.7,32.4,71.7,72a71.71,71.71,0,0,1-39.6,64.2l44.4,73.8h-53.1l-39.9-66.3h-38.1v66.3h-48Zm102.6,100.5c13.2,0,23.7-12.9,23.7-28.5,0-15.9-10.5-28.8-23.7-28.8h-54.6v57.3Z" transform="translate(-122 -434.83)"/><path class="cls-1" d="M512.58,544.63c0-60.6,50.4-109.8,112.2-109.8S737,484,737,544.63s-50.4,109.8-112.2,109.8S512.58,605.23,512.58,544.63Zm112.2,66.6c35.4,0,64.2-29.7,64.2-66.6s-28.8-66.6-64.2-66.6-64.2,29.7-64.2,66.6S589.38,611.23,624.78,611.23Z" transform="translate(-122 -434.83)"/><path class="cls-1" d="M820.08,515.23v134.4h-43.2v-210h43.2L922.38,574V439.63h43.2v210h-43.2Z" transform="translate(-122 -434.83)"/><path class="cls-1" d="M1062.77,482.83h-65.7v-43.2h179.4v43.2h-65.7v166.8h-48Z" transform="translate(-122 -434.83)"/><path class="cls-1" d="M1390.67,544.63c0-60.6,50.4-109.8,112.2-109.8a108.8,108.8,0,0,1,100.2,66h-53.4a59.15,59.15,0,0,0-46.8-22.8c-35.4,0-64.2,29.7-64.2,66.6s28.8,66.6,64.2,66.6a64.35,64.35,0,0,0,60.3-42h-62.7v-40.8h110.7a141.85,141.85,0,0,1,1.2,16.2,109.92,109.92,0,0,1-110.1,109.8C1441.07,654.43,1390.67,605.23,1390.67,544.63Z" transform="translate(-122 -434.83)"/><path class="cls-1" d="M1691.57,569.53l-75-129.9h52.2l48,88.5,48-88.5h49.8l-75,129.9v80.1h-48Z" transform="translate(-122 -434.83)"/><rect class="cls-1" x="1086" y="88.17" width="151" height="44"/><rect class="cls-1" x="1086" y="171.17" width="151" height="44"/><rect class="cls-1" x="1086" y="5.17" width="151" height="43"/><rect class="cls-1" y="5.17" width="146" height="43"/><polygon class="cls-1" points="146 93.17 43 93.17 0 93.17 0 136.17 0 215.17 43 215.17 43 136.17 146 136.17 146 93.17"/></svg>